<svg width="512" height="512" viewBox="0 0 512 512" fill="none" xmlns="http://www.w3.org/2000/svg">
<g clip-path="url(#clip0_5_3367)">
<path d="M477.867 0H34.1333C25.0806 0 16.3987 3.59618 9.99742 9.99742C3.59618 16.3987 0 25.0806 0 34.1333L0 375.467C0 384.519 3.59618 393.201 9.99742 399.603C16.3987 406.004 25.0806 409.6 34.1333 409.6H204.459C201.122 450.458 173.875 452.207 170.59 452.267H162.133C153.081 452.267 144.399 455.863 137.997 462.264C131.596 468.665 128 477.347 128 486.4V494.933C128 499.46 129.798 503.801 132.999 507.001C136.199 510.202 140.54 512 145.067 512H366.933C371.46 512 375.801 510.202 379.001 507.001C382.202 503.801 384 499.46 384 494.933V486.4C384 477.347 380.404 468.665 374.003 462.264C367.601 455.863 358.919 452.267 349.867 452.267H341.333C340.028 452.267 311.023 451.729 307.55 409.6H477.867C486.919 409.6 495.601 406.004 502.003 399.603C508.404 393.201 512 384.519 512 375.467V34.1333C512 25.0806 508.404 16.3987 502.003 9.99742C495.601 3.59618 486.919 0 477.867 0ZM34.1333 17.0667H477.867C482.393 17.0667 486.734 18.8648 489.935 22.0654C493.135 25.266 494.933 29.607 494.933 34.1333V341.333H17.0667V34.1333C17.0667 29.607 18.8648 25.266 22.0654 22.0654C25.266 18.8648 29.607 17.0667 34.1333 17.0667ZM349.867 469.333C354.393 469.333 358.734 471.131 361.935 474.332C365.135 477.533 366.933 481.874 366.933 486.4V494.933H145.067V486.4C145.067 481.874 146.865 477.533 150.065 474.332C153.266 471.131 157.607 469.333 162.133 469.333H349.867ZM306.159 452.267H205.841C215.676 440.193 221.175 425.169 221.457 409.6H290.577C290.85 425.165 296.337 440.189 306.159 452.267ZM477.867 392.533H34.1333C29.607 392.533 25.266 390.735 22.0654 387.535C18.8648 384.334 17.0667 379.993 17.0667 375.467V358.4H494.933V375.467C494.933 379.993 493.135 384.334 489.935 387.535C486.734 390.735 482.393 392.533 477.867 392.533Z" fill="white"/>
<path d="M51.2 324.266H460.8C465.326 324.266 469.667 322.468 472.868 319.267C476.069 316.067 477.867 311.726 477.867 307.199V51.1995C477.867 46.6731 476.069 42.3321 472.868 39.1315C469.667 35.9309 465.326 34.1328 460.8 34.1328H51.2C46.6736 34.1328 42.3326 35.9309 39.132 39.1315C35.9314 42.3321 34.1333 46.6731 34.1333 51.1995V307.199C34.1333 311.726 35.9314 316.067 39.132 319.267C42.3326 322.468 46.6736 324.266 51.2 324.266ZM228.693 269.653L218.453 261.973C214.217 258.791 210.778 254.668 208.408 249.929C206.038 245.19 204.803 239.965 204.8 234.666V107.903C204.68 104.581 205.776 101.329 207.882 98.757C209.989 96.1852 212.962 94.4704 216.243 93.9344C218.034 93.7327 219.847 93.9169 221.56 94.4748C223.274 95.0327 224.847 95.9512 226.176 97.1685C227.505 98.3682 228.568 99.8333 229.295 101.469C230.023 103.105 230.399 104.876 230.4 106.666V145.066C230.4 147.329 231.299 149.5 232.899 151.1C234.5 152.7 236.67 153.599 238.933 153.599C241.196 153.599 243.367 152.7 244.967 151.1C246.568 149.5 247.467 147.329 247.467 145.066V123.733C247.473 121.939 247.856 120.167 248.591 118.531C249.326 116.894 250.396 115.431 251.733 114.235C253.054 113.009 254.626 112.085 256.34 111.526C258.053 110.968 259.868 110.789 261.658 111.001C264.932 111.545 267.897 113.262 269.997 115.834C272.097 118.405 273.188 121.653 273.067 124.97V153.599C273.067 155.863 273.966 158.033 275.566 159.633C277.166 161.234 279.337 162.133 281.6 162.133C283.863 162.133 286.034 161.234 287.634 159.633C289.234 158.033 290.133 155.863 290.133 153.599V140.799C290.134 139.009 290.51 137.239 291.238 135.603C291.965 133.967 293.028 132.502 294.357 131.302C295.679 130.076 297.25 129.152 298.964 128.594C300.677 128.035 302.492 127.856 304.282 128.068C307.564 128.602 310.539 130.316 312.648 132.888C314.756 135.46 315.853 138.713 315.733 142.037V170.666C315.733 172.929 316.632 175.1 318.233 176.7C319.833 178.3 322.003 179.199 324.267 179.199C326.53 179.199 328.7 178.3 330.301 176.7C331.901 175.1 332.8 172.929 332.8 170.666V157.866C332.801 156.076 333.177 154.305 333.905 152.669C334.632 151.033 335.695 149.568 337.024 148.369C338.346 147.143 339.917 146.22 341.631 145.661C343.344 145.103 345.159 144.923 346.948 145.134C350.231 145.669 353.206 147.383 355.314 149.955C357.423 152.527 358.52 155.78 358.4 159.103V255.999C358.403 259.353 357.418 262.633 355.568 265.43C353.718 268.227 351.085 270.417 347.998 271.726C343.381 273.791 339.476 277.173 336.772 281.448C334.069 285.722 332.687 290.7 332.8 295.756V307.199H238.933V290.133C238.926 286.16 237.998 282.243 236.221 278.689C234.444 275.136 231.867 272.042 228.693 269.653ZM119.108 183.381C117.932 177.302 114.652 171.832 109.844 167.931C105.036 164.03 99.0077 161.947 92.817 162.047L85.3333 162.133C85.3333 159.887 85.7767 157.662 86.6381 155.588C87.4995 153.513 88.762 151.629 90.3531 150.044C91.9442 148.458 93.8327 147.202 95.9102 146.348C97.9877 145.494 100.213 145.058 102.46 145.066L117.316 144.955C131.644 144.955 138.172 151.611 147.396 166.519C148.16 167.751 149.226 168.768 150.492 169.474C151.758 170.181 153.183 170.553 154.633 170.555L187.733 170.666V204.799L155.255 204.714C153.759 204.716 152.289 205.111 150.994 205.86C149.698 206.608 148.622 207.685 147.874 208.981C146.007 212.226 143.71 215.206 141.047 217.838L138.735 220.202C131.337 227.78 128.845 230.331 119.424 230.331L102.4 230.399C100.163 230.404 97.9467 229.965 95.8802 229.108C93.8137 228.25 91.9377 226.991 90.3609 225.404C88.784 223.817 87.5376 221.933 86.6936 219.861C85.8497 217.789 85.425 215.57 85.4442 213.333L93.8666 213.222C97.591 213.224 101.271 212.414 104.65 210.848C108.029 209.281 111.025 206.997 113.43 204.153C115.835 201.309 117.591 197.975 118.574 194.383C119.558 190.791 119.746 187.027 119.125 183.355L119.108 183.381ZM51.2 51.1995H460.8V307.199H349.867V295.756C349.78 294.057 350.186 292.369 351.035 290.895C351.884 289.421 353.141 288.223 354.654 287.445C360.832 284.833 366.103 280.456 369.805 274.863C373.508 269.269 375.477 262.707 375.467 255.999V221.866H409.6C418.653 221.866 427.335 218.27 433.736 211.869C440.137 205.467 443.733 196.786 443.733 187.733C443.733 178.68 440.137 169.998 433.736 163.597C427.335 157.196 418.653 153.599 409.6 153.599H374.963C373.913 147.086 370.782 141.088 366.04 136.502C361.298 131.915 355.199 128.986 348.655 128.153C342.573 127.537 336.447 128.796 331.102 131.763C329.805 127.552 327.582 123.685 324.596 120.444C321.61 117.204 317.937 114.673 313.846 113.037C309.755 111.4 305.349 110.7 300.952 110.987C296.556 111.274 292.279 112.541 288.435 114.696C287.146 110.507 284.941 106.658 281.979 103.427C279.017 100.196 275.373 97.6657 271.312 96.0185C267.25 94.3714 262.873 93.6491 258.498 93.9041C254.122 94.1591 249.859 95.385 246.016 97.4928C243.915 90.9814 239.643 85.3887 233.913 81.6499C228.183 77.9112 221.343 76.2531 214.537 76.9531C207.055 77.9383 200.195 81.6327 195.256 87.3368C190.316 93.0408 187.639 100.358 187.733 107.903V153.599L159.36 153.523C150.528 140.04 139.358 127.923 117.257 127.923L102.4 127.999C93.3472 127.999 84.6653 131.596 78.2641 137.997C71.8628 144.398 68.2666 153.08 68.2666 162.133C68.2722 164.383 68.7217 166.61 69.5894 168.687C70.457 170.763 71.7258 172.648 73.3231 174.234C74.9203 175.819 76.8146 177.074 78.8975 177.926C80.9804 178.778 83.2109 179.211 85.4613 179.199L92.945 179.089C95.071 179.012 97.1582 179.672 98.8542 180.956C100.55 182.24 101.751 184.07 102.255 186.137C102.475 187.374 102.419 188.643 102.092 189.856C101.764 191.068 101.173 192.194 100.361 193.151C99.5419 194.104 98.5252 194.866 97.3815 195.385C96.2377 195.904 94.9945 196.167 93.7386 196.155L85.3333 196.266C80.8069 196.266 76.466 198.064 73.2654 201.265C70.0647 204.465 68.2666 208.806 68.2666 213.333C68.2802 222.392 71.8889 231.075 78.3002 237.475C84.7114 243.875 93.4008 247.468 102.46 247.466L119.467 247.355C125.544 247.47 131.562 246.146 137.03 243.492C142.498 240.837 147.261 236.927 150.929 232.081L153.097 229.87C155.614 227.381 157.898 224.668 159.923 221.764L187.733 221.866V234.666C187.742 242.613 189.596 250.45 193.15 257.558C196.704 264.666 201.861 270.851 208.213 275.626L218.453 283.306C219.51 284.104 220.368 285.135 220.96 286.319C221.553 287.504 221.863 288.809 221.867 290.133V307.199H51.2V51.1995ZM375.467 170.666H409.6C414.126 170.666 418.467 172.464 421.668 175.665C424.869 178.865 426.667 183.206 426.667 187.733C426.667 192.259 424.869 196.6 421.668 199.801C418.467 203.001 414.126 204.799 409.6 204.799H375.467V170.666Z" fill="white"/>
</g>
<defs>
<clipPath id="clip0_5_3367">
<rect width="512" height="512" fill="white"/>
</clipPath>
</defs>
</svg>
